<svg width="32" height="32" viewBox="0 0 32 32" fill="none" xmlns="http://www.w3.org/2000/svg">
    <path d="M32 16C32 13.832 31.048 11.7867 29.4334 10.5013C29.62 8.33867 28.8467 6.22 27.3134 4.68534C25.78 3.15334 23.6667 2.38134 21.6107 2.612C18.9254 -0.795998 13.124 -0.859998 10.5014 2.56534C8.33603 2.37334 6.22003 3.15067 4.68669 4.68534C3.15469 6.21867 2.38136 8.33867 2.61336 10.388C-0.794639 13.0733 -0.859973 18.8747 2.56669 21.4987C2.38003 23.6613 3.15336 25.78 4.68669 27.3147C6.22003 28.8467 8.33603 29.6213 10.3894 29.388C13.0747 32.796 18.876 32.86 21.4987 29.4347C23.6587 29.616 25.7787 28.8493 27.3134 27.3147C28.8454 25.7813 29.6187 23.6613 29.3867 21.612C31.048 20.2147 32 18.1693 32 16.0013V16ZM23.3867 14.088L17.068 20.1787C15.5174 21.7267 12.98 21.7133 11.4294 20.1613L8.42669 17.372C7.88803 16.8707 7.85603 16.0267 8.35736 15.488C8.86003 14.948 9.70536 14.9187 10.2414 15.4187L13.2787 18.2413C13.836 18.7973 14.6787 18.796 15.1987 18.2747L21.5347 12.1667C22.0654 11.6573 22.9094 11.672 23.42 12.2013C23.932 12.7307 23.916 13.576 23.3867 14.0867V14.088Z" fill="#14875E"/>
</svg>

