<svg width="79" height="148" viewBox="0 0 79 148" fill="none" xmlns="http://www.w3.org/2000/svg">
    <path d="M41.5 55.5L41.6886 54.0119L41.5 55.5ZM51.5 136.5L51.2005 135.03L51.5 136.5ZM20.6771 133.746C19.9844 134.201 19.7914 135.131 20.2458 135.823L27.652 147.11C28.1064 147.803 29.0363 147.996 29.729 147.542C30.4216 147.087 30.6147 146.157 30.1602 145.464L23.577 135.431L33.61 128.848C34.3026 128.394 34.4957 127.464 34.0412 126.771C33.5868 126.079 32.6568 125.886 31.9642 126.34L20.6771 133.746ZM23.6906 20.13L25.1517 20.4694L23.6906 20.13ZM3.06732 3.5C3.89575 3.5 4.56732 2.82843 4.56732 2C4.56732 1.17157 3.89575 0.5 3.06732 0.5V3.5ZM8.20196 0.5C7.37353 0.5 6.70196 1.17157 6.70196 2C6.70196 2.82843 7.37353 3.5 8.20196 3.5V0.5ZM13.5228 3.86137C14.3227 4.07678 15.1458 3.60293 15.3612 2.803C15.5766 2.00307 15.1028 1.17997 14.3029 0.964562L13.5228 3.86137ZM20.4104 4.45452C19.8117 3.88197 18.8622 3.90319 18.2897 4.50193C17.7171 5.10066 17.7383 6.05017 18.3371 6.62272L20.4104 4.45452ZM21.5107 11.3404C21.8234 12.1075 22.6988 12.4759 23.4659 12.1631C24.2331 11.8504 24.6014 10.9749 24.2886 10.2078L21.5107 11.3404ZM25.5746 17.0035C25.5877 16.1752 24.9268 15.4931 24.0985 15.4799C23.2702 15.4668 22.5881 16.1277 22.5749 16.956L25.5746 17.0035ZM21.6196 22.6692C21.4644 23.4829 21.9983 24.2684 22.812 24.4237C23.6258 24.5789 24.4113 24.0451 24.5665 23.2313L21.6196 22.6692ZM23.7701 28.7934C23.8456 27.9684 23.238 27.2384 22.413 27.163C21.588 27.0875 20.858 27.6951 20.7826 28.5201L23.7701 28.7934ZM20.6135 34.48C20.648 35.3077 21.347 35.9507 22.1747 35.9161C23.0024 35.8816 23.6454 35.1826 23.6108 34.3549L20.6135 34.48ZM24.3231 39.7832C24.1331 38.9769 23.3255 38.4772 22.5191 38.6672C21.7128 38.8572 21.2131 39.6649 21.4031 40.4712L24.3231 39.7832ZM23.5625 46.2286C23.959 46.956 24.8701 47.2243 25.5975 46.8278C26.3248 46.4313 26.5931 45.5202 26.1966 44.7928L23.5625 46.2286ZM29.4187 48.9393C28.8091 48.3783 27.8602 48.4177 27.2992 49.0272C26.7382 49.6368 26.7776 50.5857 27.3871 51.1467L29.4187 48.9393ZM32.5529 54.5768C33.303 54.9285 34.1962 54.6056 34.5479 53.8555C34.8996 53.1055 34.5767 52.2123 33.8266 51.8606L32.5529 54.5768ZM38.9613 53.5506C38.1514 53.3763 37.3536 53.8916 37.1794 54.7015C37.0051 55.5114 37.5204 56.3092 38.3303 56.4835L38.9613 53.5506ZM44.1738 57.502C44.9807 57.69 45.7871 57.1884 45.9751 56.3816C46.1631 55.5748 45.6614 54.7683 44.8546 54.5803L44.1738 57.502ZM50.9185 56.6452C50.1637 56.3039 49.275 56.639 48.9336 57.3938C48.5922 58.1486 48.9274 59.0373 49.6822 59.3787L50.9185 56.6452ZM54.7765 62.2565C55.4604 62.724 56.3938 62.5486 56.8613 61.8647C57.3288 61.1808 57.1534 60.2474 56.4695 59.7798L54.7765 62.2565ZM61.413 63.7566C60.8079 63.1909 59.8587 63.2228 59.2929 63.8279C58.7271 64.4331 58.7591 65.3823 59.3642 65.9481L61.413 63.7566ZM63.4056 70.2764C63.9304 70.9173 64.8755 71.0114 65.5164 70.4866C66.1574 69.9617 66.2515 69.0166 65.7266 68.3757L63.4056 70.2764ZM69.4166 73.4809C68.9714 72.7823 68.0441 72.5769 67.3455 73.0222C66.6469 73.4674 66.4415 74.3947 66.8867 75.0933L69.4166 73.4809ZM69.8039 80.2843C70.1699 81.0275 71.0691 81.3332 71.8123 80.9672C72.5555 80.6012 72.8612 79.702 72.4952 78.9588L69.8039 80.2843ZM74.9676 84.7323C74.6821 83.9546 73.8202 83.5556 73.0425 83.8411C72.2648 84.1266 71.8658 84.9885 72.1514 85.7662L74.9676 84.7323ZM73.9067 91.4622C74.1081 92.2658 74.9228 92.754 75.7264 92.5526C76.5299 92.3512 77.0181 91.5366 76.8168 90.733L73.9067 91.4622ZM78.0066 96.9087C77.896 96.0877 77.1408 95.5117 76.3198 95.6223C75.4988 95.7328 74.9229 96.488 75.0334 97.309L78.0066 96.9087ZM75.4717 103.231C75.4812 104.06 76.1605 104.724 76.9889 104.714C77.8173 104.704 78.481 104.025 78.4715 103.197L75.4717 103.231ZM78.1158 109.513C78.2209 108.691 77.64 107.94 76.8183 107.835C75.9965 107.73 75.2452 108.311 75.1401 109.132L78.1158 109.513ZM73.9404 114.881C73.7046 115.675 74.1573 116.51 74.9514 116.746C75.7456 116.982 76.5806 116.529 76.8164 115.735L73.9404 114.881ZM74.4418 121.672C74.8219 120.936 74.5332 120.031 73.7971 119.651C73.061 119.271 72.1562 119.559 71.7762 120.295L74.4418 121.672ZM68.5961 125.142C68.0701 125.782 68.1625 126.727 68.8025 127.253C69.4425 127.779 70.3877 127.687 70.9137 127.047L68.5961 125.142ZM66.3059 131.54C66.9588 131.03 67.0746 130.087 66.5646 129.434C66.0546 128.782 65.112 128.666 64.4591 129.176L66.3059 131.54ZM59.5468 132.242C58.8033 132.607 58.4967 133.506 58.8621 134.249C59.2275 134.993 60.1264 135.299 60.8699 134.934L59.5468 132.242ZM54.9092 137.212C55.7057 136.984 56.1669 136.154 55.9391 135.357C55.7114 134.561 54.8811 134.1 54.0846 134.327L54.9092 137.212ZM48.8336 135.413C48.0114 135.515 47.4278 136.264 47.5299 137.086C47.6321 137.908 48.3813 138.492 49.2034 138.39L48.8336 135.413ZM44.0296 138.743C44.8578 138.725 45.5153 138.04 45.498 137.212C45.4808 136.383 44.7954 135.726 43.9671 135.743L44.0296 138.743ZM39.034 135.671C38.2065 135.633 37.5047 136.272 37.4665 137.1C37.4283 137.928 38.0683 138.629 38.8958 138.668L39.034 135.671ZM33.8007 138.302C34.6254 138.381 35.3577 137.776 35.4363 136.951C35.515 136.126 34.9102 135.394 34.0855 135.316L33.8007 138.302ZM29.1486 134.743C28.3277 134.632 27.572 135.207 27.4607 136.028C27.3494 136.849 27.9247 137.605 28.7456 137.716L29.1486 134.743ZM23.7125 136.939C24.5287 137.081 25.3055 136.534 25.4475 135.718C25.5895 134.902 25.043 134.125 24.2269 133.983L23.7125 136.939ZM0.5 3.5H3.06732V0.5H0.5V3.5ZM8.20196 3.5H10.7693V0.5H8.20196V3.5ZM10.7693 3.5C11.7305 3.5 12.6505 3.62649 13.5228 3.86137L14.3029 0.964562C13.1782 0.661715 11.996 0.5 10.7693 0.5V3.5ZM18.3371 6.62272C19.6874 7.91404 20.7748 9.53543 21.5107 11.3404L24.2886 10.2078C23.4022 8.03358 22.0824 6.05338 20.4104 4.45452L18.3371 6.62272ZM22.5749 16.956C22.5599 17.9032 22.4473 18.8533 22.2295 19.7905L25.1517 20.4694C25.419 19.3188 25.5563 18.1567 25.5746 17.0035L22.5749 16.956ZM22.2295 19.7905C22.0102 20.7347 21.8053 21.696 21.6196 22.6692L24.5665 23.2313C24.7442 22.2999 24.9407 21.3776 25.1517 20.4694L22.2295 19.7905ZM20.7826 28.5201C20.6008 30.5072 20.5312 32.508 20.6135 34.48L23.6108 34.3549C23.5349 32.5359 23.5984 30.6697 23.7701 28.7934L20.7826 28.5201ZM21.4031 40.4712C21.8774 42.4844 22.5788 44.424 23.5625 46.2286L26.1966 44.7928C25.3587 43.2556 24.7449 41.5736 24.3231 39.7832L21.4031 40.4712ZM27.3871 51.1467C28.8403 52.4841 30.5538 53.6394 32.5529 54.5768L33.8266 51.8606C32.0924 51.0474 30.637 50.0605 29.4187 48.9393L27.3871 51.1467ZM38.3303 56.4835C39.2801 56.6878 40.2733 56.8565 41.3114 56.9881L41.6886 54.0119C40.7311 53.8905 39.8227 53.7359 38.9613 53.5506L38.3303 56.4835ZM41.3114 56.9881C42.2793 57.1108 43.2337 57.283 44.1738 57.502L44.8546 54.5803C43.8157 54.3382 42.76 54.1477 41.6886 54.0119L41.3114 56.9881ZM49.6822 59.3787C51.4456 60.1762 53.1465 61.1422 54.7765 62.2565L56.4695 59.7798C54.7038 58.5728 52.8507 57.5192 50.9185 56.6452L49.6822 59.3787ZM59.3642 65.9481C60.7888 67.28 62.1386 68.7291 63.4056 70.2764L65.7266 68.3757C64.38 66.7311 62.9398 65.1841 61.413 63.7566L59.3642 65.9481ZM66.8867 75.0933C67.9475 76.7576 68.9222 78.494 69.8039 80.2843L72.4952 78.9588C71.5662 77.0725 70.5378 75.2401 69.4166 73.4809L66.8867 75.0933ZM72.1514 85.7662C72.8383 87.6374 73.4256 89.5422 73.9067 91.4622L76.8168 90.733C76.3095 88.7088 75.6908 86.7023 74.9676 84.7323L72.1514 85.7662ZM75.0334 97.309C75.3009 99.2955 75.4491 101.276 75.4717 103.231L78.4715 103.197C78.4474 101.114 78.2897 99.0109 78.0066 96.9087L75.0334 97.309ZM75.1401 109.132C74.8873 111.108 74.4894 113.032 73.9404 114.881L76.8164 115.735C77.4143 113.721 77.8439 111.639 78.1158 109.513L75.1401 109.132ZM71.7762 120.295C70.8861 122.019 69.8287 123.642 68.5961 125.142L70.9137 127.047C72.2867 125.376 73.4592 123.575 74.4418 121.672L71.7762 120.295ZM64.4591 129.176C62.9884 130.325 61.354 131.353 59.5468 132.242L60.8699 134.934C62.8588 133.957 64.6691 132.819 66.3059 131.54L64.4591 129.176ZM54.0846 134.327C53.1583 134.592 52.1972 134.827 51.2005 135.03L51.7995 137.97C52.8699 137.752 53.9064 137.499 54.9092 137.212L54.0846 134.327ZM51.2005 135.03C50.4469 135.184 49.6555 135.31 48.8336 135.413L49.2034 138.39C50.0919 138.279 50.9605 138.141 51.7995 137.97L51.2005 135.03ZM43.9671 135.743C42.342 135.777 40.6814 135.747 39.034 135.671L38.8958 138.668C40.5977 138.746 42.3262 138.778 44.0296 138.743L43.9671 135.743ZM34.0855 135.316C32.3284 135.148 30.6591 134.948 29.1486 134.743L28.7456 137.716C30.2893 137.925 31.9985 138.13 33.8007 138.302L34.0855 135.316ZM24.2269 133.983C23.46 133.85 22.8512 133.736 22.4357 133.656C22.228 133.616 22.0686 133.585 21.962 133.563C21.9087 133.553 21.8686 133.545 21.8422 133.539C21.829 133.537 21.8193 133.535 21.813 133.533C21.8099 133.533 21.8077 133.532 21.8063 133.532C21.8056 133.532 21.8052 133.532 21.8049 133.532C21.8048 133.532 21.8047 133.532 21.8047 133.532C21.8047 133.532 21.8047 133.532 21.8048 133.532C21.8048 133.532 21.8048 133.532 21.8048 133.532C21.8048 133.532 21.8049 133.532 21.5 135C21.195 136.469 21.1951 136.469 21.1951 136.469C21.1952 136.469 21.1952 136.469 21.1952 136.469C21.1953 136.469 21.1954 136.469 21.1955 136.469C21.1957 136.469 21.196 136.469 21.1963 136.469C21.197 136.469 21.1979 136.47 21.199 136.47C21.2012 136.47 21.2043 136.471 21.2082 136.472C21.2162 136.473 21.2277 136.476 21.2426 136.479C21.2724 136.485 21.3161 136.494 21.373 136.505C21.4869 136.528 21.6538 136.561 21.8694 136.602C22.3006 136.685 22.9268 136.802 23.7125 136.939L24.2269 133.983Z" fill="#425F54"/>
</svg>
